<svg width="128" height="128" viewBox="0 0 128 128" fill="none" xmlns="http://www.w3.org/2000/svg">
<path d="M3.65591 45.043C3.65591 45.043 0.628909 42.852 4.26591 39.93L12.7339 32.336C12.7339 32.336 15.1599 29.777 17.7229 32.008L95.8979 91.336V119.786C95.8979 119.786 95.8589 124.254 90.1409 123.762L3.65591 45.043Z" fill="black"/>
<path d="M23.8088 63.379L3.65584 81.742C3.65584 81.742 1.58584 83.285 3.65584 86.047L13.0118 94.574C13.0118 94.574 15.2338 96.969 18.5198 94.246L39.8788 78.008L23.8088 63.379Z" fill="black"/>
<path d="M59.1839 63.5311L96.1369 35.2461L95.8979 6.94906C95.8979 6.94906 94.3199 0.773056 89.0549 3.99006L39.8789 48.8511L59.1839 63.5311Z" fill="black"/>
<path d="M90.1402 123.797C92.2852 126 94.8872 125.277 94.8872 125.277L123.684 111.055C127.371 108.535 126.855 105.41 126.855 105.41V20.4651C126.855 16.7301 123.043 15.4411 123.043 15.4411L98.0822 3.38006C92.6292 0.00105858 89.0552 3.99006 89.0552 3.99006C89.0552 3.99006 93.6482 0.673059 95.8982 6.95006V119.267C95.8982 120.04 95.7342 120.797 95.4062 121.481C94.7502 122.813 93.3202 124.051 89.9022 123.532L90.1402 123.797Z" fill="black"/>
</svg>
