<svg width="128" height="128" viewBox="0 0 128 128" fill="none" xmlns="http://www.w3.org/2000/svg">
<path fill-rule="evenodd" clip-rule="evenodd" d="M5.43 67.059C5.43 70.941 5.043 72.207 4.043 73.137C2.937 73.937 1.496 74.379 0 74.379L0.387 76.598C2.703 76.621 4.949 75.965 6.707 74.758C7.648 73.832 8.352 72.77 8.77 71.625C9.18522 70.4999 9.31241 69.2888 9.14 68.102V53.418H5.43V67.059ZM31.59 64.89C31.59 66.5 31.59 67.934 31.742 69.18H28.622L28.41 66.625C27.754 67.531 26.82 68.277 25.7 68.785C24.5481 69.3057 23.295 69.5646 22.031 69.543C18.984 69.543 15.359 68.191 15.359 62.683V53.527H18.879V62.102C18.879 65.082 20.012 67.074 23.184 67.074C23.8324 67.0819 24.4778 66.9829 25.094 66.781C25.6811 66.5869 26.2288 66.2892 26.711 65.902C27.1584 65.544 27.5234 65.0938 27.781 64.582C28.031 64.09 28.156 63.562 28.148 63.023V53.418H31.664V64.805L31.59 64.89ZM39.07 58.3C39.07 56.156 39.07 54.398 38.91 52.813H42.074L42.23 55.695C42.934 54.648 43.95 53.797 45.164 53.219C46.402 52.6365 47.7619 52.3604 49.129 52.414C53.816 52.414 57.344 55.855 57.344 60.977C57.344 67.023 53.105 70.023 48.524 70.023C47.361 70.0709 46.2024 69.852 45.137 69.383C44.1192 68.9391 43.2288 68.2474 42.547 67.371V76.598H39.07V58.3ZM42.547 62.797C42.555 63.219 42.609 63.637 42.703 64.047C43.003 65.07 43.683 65.977 44.637 66.625C45.59 67.277 46.766 67.625 47.973 67.625C51.683 67.625 53.867 64.969 53.867 61.117C53.867 57.75 51.817 54.863 48.102 54.863C46.632 54.969 45.258 55.539 44.234 56.469C43.214 57.402 42.609 58.625 42.547 59.914V62.797ZM63.344 53.46L67.648 62.844C68.098 63.891 68.582 65.148 68.898 66.086C69.273 65.129 69.676 63.91 70.156 62.777L74.059 53.461H77.824L72.48 64.78C69.809 70.218 68.18 73.03 65.723 74.726C64.484 75.651 62.973 76.292 61.34 76.596L60.46 74.163C61.574 73.8685 62.6306 73.3892 63.586 72.745C64.886 71.878 65.922 70.776 66.606 69.522C66.75 69.308 66.852 69.069 66.898 68.827C66.8628 68.5607 66.7809 68.3028 66.656 68.065L59.391 53.417H63.293L63.344 53.46ZM87.223 48.379V53.031H92.16V55.246H87.223V63.976C87.223 65.973 87.895 67.121 89.793 67.121C90.4679 67.1301 91.1416 67.062 91.801 66.918L91.953 69.141C90.9608 69.4327 89.9287 69.5657 88.895 69.535C88.2106 69.5737 87.5252 69.4821 86.875 69.265C86.2459 69.0622 85.665 68.7327 85.168 68.297C84.121 67.086 83.641 65.582 83.828 64.086V55.223H80.895V53.008H83.879V49.062L87.223 48.379ZM98.79 61.441C98.715 62.203 98.84 62.969 99.156 63.684C99.476 64.402 99.973 65.054 100.621 65.59C101.27 66.133 102.047 66.55 102.906 66.812C103.775 67.0795 104.687 67.1846 105.594 67.122C107.438 67.156 109.274 66.867 110.973 66.266L111.593 68.512C109.473 69.2362 107.242 69.5798 105.003 69.527C103.695 69.6001 102.384 69.4376 101.133 69.047C99.903 68.657 98.785 68.047 97.859 67.262C96.934 66.477 96.223 65.532 95.773 64.496C95.3298 63.4792 95.1552 62.3656 95.266 61.262C95.266 56.316 98.789 52.41 104.546 52.41C111 52.41 112.617 57.125 112.617 60.137C112.648 60.602 112.648 61.062 112.617 61.527H98.707L98.79 61.441ZM109.332 59.195C109.437 58.5922 109.386 57.9725 109.184 57.395C108.966 56.7963 108.613 56.256 108.152 55.816C107.658 55.3435 107.074 54.9755 106.434 54.734C105.763 54.4769 105.051 54.3434 104.332 54.34C102.855 54.43 101.469 54.977 100.449 55.875C99.426 56.773 98.844 57.953 98.816 59.195H109.332ZM117.914 58.055C117.914 56.085 117.914 54.387 117.762 52.825H120.801V56.105H120.949C121.269 55.094 121.929 54.195 122.832 53.539C123.765 52.8731 124.871 52.4905 126.016 52.437C126.332 52.398 126.656 52.398 126.976 52.437V55.305C126.59 55.2621 126.199 55.2621 125.813 55.305C124.664 55.344 123.566 55.758 122.734 56.477C121.898 57.195 121.383 58.164 121.281 59.199C121.186 59.6674 121.134 60.1433 121.125 60.621V69.543H117.785V58.078L117.914 58.055ZM109.766 7.281C109.829 8.78423 109.45 10.273 108.676 11.563C107.904 12.8466 106.769 13.8728 105.414 14.512C104.062 15.1469 102.55 15.3628 101.074 15.132C99.5954 14.9016 98.2191 14.2355 97.121 13.219C96.0182 12.1963 95.2417 10.8709 94.8888 9.40888C94.5359 7.94685 94.6222 6.41318 95.137 5C95.6461 3.58959 96.5608 2.36112 97.766 1.469C98.9685 0.581201 100.409 0.0724911 101.902 0.00800223C102.893 -0.0337492 103.882 0.121137 104.813 0.463721C105.743 0.806305 106.597 1.3298 107.324 2.004C108.8 3.37123 109.677 5.26654 109.762 7.277L109.766 7.281ZM65.758 96.79C45.66 96.79 28.109 89.426 18.992 78.523C22.3726 88.2851 28.697 96.7588 37.094 102.777C45.4558 108.768 55.4836 111.99 65.77 111.992C76.0558 111.988 86.0826 108.766 94.445 102.777C102.841 96.7592 109.162 88.2851 112.539 78.523C103.406 89.426 85.855 96.79 65.758 96.79ZM65.75 25.883C85.848 25.883 103.402 33.25 112.516 44.148C109.135 34.3863 102.811 25.9129 94.414 19.895C86.0533 13.9043 76.0274 10.6803 65.742 10.675C55.4566 10.6803 45.4307 13.9043 37.07 19.895C28.672 25.9113 22.3479 34.3853 18.97 44.148C28.102 33.27 45.652 25.883 65.75 25.883ZM38.164 117.984C38.2464 119.879 37.7696 121.757 36.793 123.383C35.8225 125.001 34.3922 126.294 32.6842 127.096C30.9762 127.898 29.0681 128.174 27.203 127.887C25.338 127.599 23.6028 126.756 22.223 125.469C20.8374 124.179 19.8607 122.511 19.414 120.672C18.973 118.826 19.0818 116.89 19.727 115.105C20.3741 113.326 21.5318 111.777 23.055 110.652C24.8291 109.348 27.0022 108.704 29.2003 108.829C31.3983 108.955 33.4839 109.843 35.098 111.34C36.9553 113.066 38.057 115.455 38.164 117.988V117.984ZM21.285 23.418C20.1803 23.466 19.0865 23.1818 18.145 22.602C17.1971 22.021 16.4425 21.1722 15.9766 20.1627C15.5107 19.1532 15.3542 18.0283 15.527 16.93C15.6929 15.8289 16.1827 14.802 16.934 13.98C17.6786 13.1617 18.6492 12.5826 19.723 12.316C20.7961 12.048 21.9252 12.1121 22.961 12.5C24.0005 12.883 24.9013 13.5688 25.547 14.469C26.3095 15.5223 26.6861 16.806 26.6135 18.1044C26.5408 19.4027 26.0233 20.6364 25.148 21.598C24.6555 22.1416 24.0602 22.5823 23.3965 22.8946C22.7328 23.207 22.0138 23.3849 21.281 23.418H21.285Z" fill="white"/>
</svg>
