<svg width="128" height="128" viewBox="0 0 128 128" fill="none" xmlns="http://www.w3.org/2000/svg">
<path d="M108.023 16H61.8052C61.8052 27.52 71.1332 36.848 82.6522 36.848H91.1522V45.074C91.1522 56.594 100.48 65.922 112 65.922V19.977C112 18.9223 111.581 17.9109 110.835 17.1651C110.089 16.4194 109.078 16.0003 108.023 16Z" fill="white"/>
<path d="M85.1209 39.04H38.9019C38.9019 50.559 48.2269 59.887 59.7459 59.887H68.2499V68.113C68.2499 79.633 77.5779 88.961 89.0979 88.961V43.016C89.0963 41.9617 88.6768 40.9511 87.9313 40.2056C87.1858 39.4601 86.1751 39.0406 85.1209 39.039V39.04Z" fill="white"/>
<path d="M62.219 62.078H16C16 73.598 25.324 82.926 36.844 82.926H45.348V91.152C45.348 102.676 54.676 112 66.195 112V66.059C66.1939 65.0045 65.7748 63.9934 65.0295 63.2473C64.2842 62.5012 63.2735 62.0811 62.219 62.079V62.078Z" fill="white"/>
</svg>
