<svg width="103" height="15" viewBox="0 0 103 15" fill="none" xmlns="http://www.w3.org/2000/svg">
<path d="M1.128 12V3.6H2.412L6.084 9.732H5.412L9.024 3.6H10.308L10.32 12H8.844L8.832 5.916H9.144L6.072 11.04H5.376L2.256 5.916H2.616V12H1.128ZM12.5889 12V3.6H14.1489V12H12.5889ZM16.421 12V3.6H17.981V10.68H22.373V12H16.421ZM22.4283 12L26.2083 3.6H27.7443L31.5363 12H29.9043L26.6523 4.428H27.2763L24.0363 12H22.4283ZM24.1683 10.056L24.5883 8.832H29.1243L29.5443 10.056H24.1683ZM32.6046 12V3.6H33.8886L39.1566 10.068H38.5206V3.6H40.0686V12H38.7846L33.5166 5.532H34.1526V12H32.6046Z" fill="#1EA8D2"/>
<path d="M46.4444 12V3.6H47.7284L52.9964 10.068H52.3604V3.6H53.9084V12H52.6244L47.3564 5.532H47.9924V12H46.4444ZM60.0833 12.12C59.4273 12.12 58.8233 12.016 58.2713 11.808C57.7273 11.592 57.2513 11.292 56.8433 10.908C56.4353 10.516 56.1193 10.056 55.8953 9.528C55.6713 9 55.5593 8.424 55.5593 7.8C55.5593 7.176 55.6713 6.6 55.8953 6.072C56.1193 5.544 56.4353 5.088 56.8433 4.704C57.2593 4.312 57.7433 4.012 58.2953 3.804C58.8473 3.588 59.4513 3.48 60.1073 3.48C60.8193 3.48 61.4593 3.596 62.0273 3.828C62.6033 4.06 63.0873 4.4 63.4793 4.848L62.4953 5.808C62.1673 5.48 61.8113 5.24 61.4273 5.088C61.0513 4.928 60.6353 4.848 60.1793 4.848C59.7393 4.848 59.3313 4.92 58.9553 5.064C58.5793 5.208 58.2553 5.412 57.9833 5.676C57.7113 5.94 57.4993 6.252 57.3473 6.612C57.2033 6.972 57.1313 7.368 57.1313 7.8C57.1313 8.224 57.2033 8.616 57.3473 8.976C57.4993 9.336 57.7113 9.652 57.9833 9.924C58.2553 10.188 58.5753 10.392 58.9433 10.536C59.3113 10.68 59.7193 10.752 60.1673 10.752C60.5833 10.752 60.9833 10.688 61.3672 10.56C61.7593 10.424 62.1313 10.2 62.4833 9.888L63.3713 11.052C62.9313 11.404 62.4193 11.672 61.8353 11.856C61.2593 12.032 60.6753 12.12 60.0833 12.12ZM61.8953 10.848V7.704H63.3713V11.052L61.8953 10.848ZM69.0408 12.12C67.8888 12.12 66.9848 11.796 66.3288 11.148C65.6808 10.5 65.3568 9.564 65.3568 8.34V3.6H66.9168V8.28C66.9168 9.144 67.1008 9.772 67.4688 10.164C67.8448 10.556 68.3728 10.752 69.0528 10.752C69.7328 10.752 70.2568 10.556 70.6248 10.164C70.9928 9.772 71.1768 9.144 71.1768 8.28V3.6H72.7128V8.34C72.7128 9.564 72.3848 10.5 71.7288 11.148C71.0808 11.796 70.1848 12.12 69.0408 12.12ZM76.8443 12V8.676L77.1923 9.636L73.5443 3.6H75.2123L78.1403 8.46H77.2043L80.1563 3.6H81.6923L78.0443 9.636L78.4043 8.676V12H76.8443ZM84.0485 7.092H88.2245V8.376H84.0485V7.092ZM84.1685 10.692H88.9085V12H82.6085V3.6H88.7405V4.908H84.1685V10.692ZM90.6475 12V3.6H91.9315L97.1995 10.068H96.5635V3.6H98.1115V12H96.8275L91.5595 5.532H92.1955V12H90.6475Z" fill="#1EA8D2"/>
<path d="M101.464 12.084C101.192 12.084 100.96 11.992 100.768 11.808C100.576 11.616 100.48 11.376 100.48 11.088C100.48 10.784 100.576 10.544 100.768 10.368C100.96 10.184 101.192 10.092 101.464 10.092C101.736 10.092 101.968 10.184 102.16 10.368C102.352 10.544 102.448 10.784 102.448 11.088C102.448 11.376 102.352 11.616 102.16 11.808C101.968 11.992 101.736 12.084 101.464 12.084Z" fill="black"/>
</svg>
