<svg width="54" height="15" viewBox="0 0 54 15" fill="none" xmlns="http://www.w3.org/2000/svg">
<path d="M1.128 12V3.6H2.412L7.68 10.068H7.044V3.6H8.592V12H7.308L2.04 5.532H2.676V12H1.128ZM10.8428 12V3.6H12.1268L15.7988 9.732H15.1268L18.7388 3.6H20.0228L20.0348 12H18.5588L18.5468 5.916H18.8588L15.7868 11.04H15.0908L11.9708 5.916H12.3308V12H10.8428ZM22.3038 12V3.6H23.8638V12H22.3038ZM26.1358 12V3.6H27.6958V10.68H32.0878V12H26.1358ZM32.1431 12L35.9231 3.6H37.4591L41.2511 12H39.6191L36.3671 4.428H36.9911L33.7511 12H32.1431ZM33.8831 10.056L34.3031 8.832H38.8391L39.2591 10.056H33.8831ZM42.3194 12V3.6H43.6034L48.8714 10.068H48.2354V3.6H49.7834V12H48.4994L43.2314 5.532H43.8674V12H42.3194Z" fill="black"/>
<path d="M52.464 12.084C52.192 12.084 51.96 11.992 51.768 11.808C51.576 11.616 51.48 11.376 51.48 11.088C51.48 10.784 51.576 10.544 51.768 10.368C51.96 10.184 52.192 10.092 52.464 10.092C52.736 10.092 52.968 10.184 53.16 10.368C53.352 10.544 53.448 10.784 53.448 11.088C53.448 11.376 53.352 11.616 53.16 11.808C52.968 11.992 52.736 12.084 52.464 12.084Z" fill="#F6FAFD"/>
</svg>
